<svg width="38" height="30" viewBox="0 0 38 30" fill="none" xmlns="http://www.w3.org/2000/svg">
<path d="M10.6 28.4C12.3333 28.4 13.68 28.0667 14.64 27.4C15.6 26.7333 16.08 25.7733 16.08 24.52C16.08 23.5067 15.8533 22.6667 15.4 22C14.9733 21.3333 14.3067 20.72 13.4 20.16C12.4933 19.6 11.16 18.9333 9.4 18.16C7.16 17.1733 5.42667 16.3067 4.2 15.56C2.97333 14.7867 2 13.8267 1.28 12.68C0.586667 11.5067 0.24 10.0267 0.24 8.24C0.24 5.68 1.14667 3.76 2.96 2.48C4.77333 1.17333 7.65333 0.52 11.6 0.52C13.36 0.52 15.0533 0.693332 16.68 1.04C18.3333 1.38666 19.72 1.82667 20.84 2.36L19.88 8.48H18.8C18.2933 6.85333 17.76 5.56 17.2 4.6C16.6667 3.64 15.9333 2.90667 15 2.4C14.0667 1.86666 12.8267 1.6 11.28 1.6C7.76 1.6 6 2.74666 6 5.04C6 5.97333 6.21333 6.74667 6.64 7.36C7.06667 7.97333 7.70667 8.53333 8.56 9.04C9.41333 9.52 10.8267 10.24 12.8 11.2L13.6 11.56C16.08 12.76 17.9067 13.7333 19.08 14.48C20.28 15.2267 21.2267 16.16 21.92 17.28C22.6133 18.3733 22.96 19.8 22.96 21.56C22.96 24.1733 21.9733 26.1467 20 27.48C18.0533 28.8133 14.9867 29.48 10.8 29.48C9.12 29.48 7.25333 29.2933 5.2 28.92C3.17333 28.5467 1.6 28.0933 0.48 27.56L1.56 20.52H2.6C2.94667 22.6 3.46667 24.2133 4.16 25.36C4.85333 26.5067 5.72 27.3067 6.76 27.76C7.8 28.1867 9.08 28.4 10.6 28.4ZM34.4694 29.32C33.536 29.32 32.736 29 32.0694 28.36C31.4294 27.72 31.1094 26.9467 31.1094 26.04C31.1094 25.1333 31.4294 24.36 32.0694 23.72C32.736 23.08 33.536 22.76 34.4694 22.76C35.4027 22.76 36.1894 23.08 36.8294 23.72C37.496 24.36 37.8294 25.1333 37.8294 26.04C37.8294 26.9467 37.496 27.72 36.8294 28.36C36.1894 29 35.4027 29.32 34.4694 29.32Z" fill="#EB5B2D"/>
</svg>
